<svg id="Layer_2" xmlns="http://www.w3.org/2000/svg" viewBox="0 0 147.86 125.83"><defs><style>.cls-1{fill:#2cad74}.cls-2{opacity:.2}</style></defs><g id="text"><g class="cls-2"><path class="cls-1" d="M85.21 18.52c-2.89 0-5.23 2.34-5.23 5.23 0 2.89 2.34 5.23 5.23 5.23 18.27 0 33.14 15.03 33.14 33.5s-14.87 33.5-33.14 33.5c-2.89 0-5.23 2.34-5.23 5.23 0 2.89 2.34 5.23 5.23 5.23 24.04 0 43.6-19.72 43.6-43.97 0-24.24-19.56-43.97-43.6-43.97z"/><path class="cls-1" d="M85.21 0c-2.89 0-5.23 2.34-5.23 5.23 0 2.89 2.34 5.23 5.23 5.23 28.77 0 52.18 23.34 52.18 52.02 0 28.69-23.41 52.02-52.18 52.02-2.89 0-5.23 2.34-5.23 5.23 0 2.89 2.34 5.23 5.23 5.23 34.55 0 62.65-28.03 62.65-62.49C147.86 28.03 119.75 0 85.21 0z"/><path class="cls-1" d="M85.21 38.47c-2.89 0-5.23 2.34-5.23 5.23s2.34 5.23 5.23 5.23c8.19 0 14.85 6.08 14.85 13.55 0 7.47-6.66 13.55-14.85 13.55-2.89 0-5.23 2.34-5.23 5.23 0 2.89 2.34 5.23 5.23 5.23 13.96 0 25.32-10.78 25.32-24.02S99.17 38.45 85.21 38.45z"/></g><g class="cls-2"><path class="cls-1" d="M62.65 19.37c2.89 0 5.23 2.34 5.23 5.23 0 2.89-2.34 5.23-5.23 5.23-18.27 0-33.14 15.03-33.14 33.5s14.87 33.5 33.14 33.5c2.89 0 5.23 2.34 5.23 5.23 0 2.89-2.34 5.23-5.23 5.23-24.04 0-43.6-19.72-43.6-43.97 0-24.24 19.56-43.97 43.6-43.97z"/><path class="cls-1" d="M62.65.85c2.89 0 5.23 2.34 5.23 5.23 0 2.89-2.34 5.23-5.23 5.23-28.77 0-52.18 23.34-52.18 52.02s23.41 52.02 52.18 52.02c2.89 0 5.23 2.34 5.23 5.23 0 2.89-2.34 5.23-5.23 5.23C28.11 125.83 0 97.8 0 63.34 0 28.88 28.11.85 62.65.85z"/><path class="cls-1" d="M62.65 39.32c2.89 0 5.23 2.34 5.23 5.23s-2.34 5.23-5.23 5.23c-8.19 0-14.85 6.08-14.85 13.55 0 7.47 6.66 13.55 14.85 13.55 2.89 0 5.23 2.34 5.23 5.23 0 2.89-2.34 5.23-5.23 5.23-13.96 0-25.32-10.78-25.32-24.02S48.69 39.3 62.65 39.3z"/></g></g></svg>