<svg id="Layer_2" xmlns="http://www.w3.org/2000/svg" viewBox="0 0 391.81 100"><defs><style>.cls-1{fill:#2cad74}.cls-2{fill:rgba(44,173,116,.8)}</style></defs><g id="text"><path d="M70.56 98.47V79.25h39.28c5.94 0 11.12-1.21 15.53-3.62s7.82-5.87 10.24-10.38c2.41-4.5 3.62-9.87 3.62-16.09s-1.23-11.44-3.69-15.95c-2.46-4.5-5.9-7.94-10.31-10.31s-9.54-3.55-15.39-3.55H70.56V.13h39.56c7.43 0 14.28 1.19 20.55 3.55 6.27 2.37 11.75 5.76 16.44 10.17 4.69 4.41 8.33 9.59 10.93 15.53 2.6 5.94 3.9 12.58 3.9 19.92s-1.3 13.72-3.9 19.71c-2.6 5.99-6.22 11.19-10.87 15.6-4.64 4.41-10.1 7.82-16.37 10.24-6.27 2.41-13.07 3.62-20.41 3.62H70.55zm133.3 1.53c-6.13 0-11.63-1.3-16.51-3.9-4.87-2.6-8.66-6.15-11.35-10.66-2.7-4.5-4.04-9.68-4.04-15.53V30.77h21.45v38.86c0 2.32.42 4.34 1.25 6.06.83 1.72 2.04 3.04 3.62 3.97 1.58.93 3.43 1.39 5.57 1.39 3.16 0 5.64-1.02 7.45-3.07 1.81-2.04 2.72-4.83 2.72-8.36V30.77h21.45v39.14c0 5.94-1.32 11.17-3.97 15.67-2.65 4.5-6.34 8.03-11.07 10.59-4.74 2.55-10.26 3.83-16.57 3.83zm75.58-69.99c6.13 0 11.63 1.3 16.51 3.9 4.87 2.6 8.66 6.15 11.35 10.66 2.7 4.5 4.04 9.68 4.04 15.53v39.14h-21.45V60.38c0-2.32-.42-4.34-1.25-6.06-.83-1.72-2.04-3.04-3.62-3.97-1.58-.93-3.43-1.39-5.57-1.39-3.16 0-5.64 1.02-7.45 3.07-1.81 2.04-2.72 4.83-2.72 8.36v38.86h-21.45V60.11c0-5.94 1.32-11.17 3.97-15.67 2.65-4.5 6.34-8.03 11.07-10.59s10.26-3.83 16.57-3.83z"/><path class="cls-2" d="M70.56.13h22.01v98.34H70.56z"/><path d="M344.45 99.23h-24.79l47.22-67.7h24.93l-47.36 67.7z"/><path class="cls-2" d="M319.65 30.77h24.94l47.22 67.7h-24.8l-47.36-67.7z"/><path class="cls-1" d="M4.18 85.01C1.87 85.01 0 83.14 0 80.83s1.87-4.18 4.18-4.18c14.59 0 26.46-12 26.46-26.75S18.77 23.15 4.18 23.15C1.87 23.15 0 21.28 0 18.97s1.87-4.18 4.18-4.18C23.38 14.79 39 30.54 39 49.9S23.38 85.01 4.18 85.01z"/><path class="cls-1" d="M4.18 99.8C1.87 99.8 0 97.93 0 95.62s1.87-4.18 4.18-4.18c22.98 0 41.67-18.64 41.67-41.54S27.16 8.36 4.18 8.36C1.87 8.36 0 6.49 0 4.18S1.87 0 4.18 0c27.59 0 50.03 22.39 50.03 49.9S31.77 99.8 4.18 99.8z"/><path class="cls-1" d="M4.18 69.08C1.87 69.08 0 67.21 0 64.9s1.87-4.18 4.18-4.18c6.54 0 11.86-4.85 11.86-10.82S10.72 39.08 4.18 39.08C1.87 39.08 0 37.21 0 34.9s1.87-4.18 4.18-4.18c11.15 0 20.22 8.6 20.22 19.18S15.33 69.08 4.18 69.08z"/></g></svg>