<svg id="Layer_2" xmlns="http://www.w3.org/2000/svg" viewBox="0 0 65.22 120.07"><defs><style>.cls-1{fill:#fff}</style></defs><g id="text"><path class="cls-1" d="M5.03 17.8C2.25 17.8 0 20.05 0 22.82s2.25 5.03 5.03 5.03c17.56 0 31.84 14.44 31.84 32.19S22.59 92.23 5.03 92.23C2.25 92.22 0 94.47 0 97.25s2.25 5.03 5.03 5.03c23.1 0 41.89-18.95 41.89-42.24 0-23.29-18.79-42.24-41.89-42.24z"/><path class="cls-1" d="M5.03 0C2.25 0 0 2.25 0 5.03c0 2.78 2.25 5.03 5.03 5.03 27.65 0 50.14 22.42 50.14 49.98 0 27.56-22.49 49.98-50.14 49.98-2.78 0-5.03 2.25-5.03 5.03s2.25 5.03 5.03 5.03c33.19 0 60.19-26.93 60.19-60.04S38.22 0 5.03 0z"/><path class="cls-1" d="M5.03 36.96C2.25 36.96 0 39.21 0 41.99c0 2.78 2.25 5.03 5.03 5.03 7.87 0 14.27 5.84 14.27 13.02S12.9 73.06 5.03 73.06C2.25 73.06 0 75.31 0 78.08s2.25 5.03 5.03 5.03c13.41 0 24.32-10.35 24.32-23.08 0-12.72-10.91-23.08-24.32-23.08z"/></g></svg>