<svg id="Layer_2" xmlns="http://www.w3.org/2000/svg" viewBox="0 0 118.95 30.36"><defs><style>.cls-1{fill:rgba(44,173,116,.8)}.cls-2{fill:none;stroke:#2cad74;stroke-linecap:round;stroke-miterlimit:10;stroke-width:2.54px}</style></defs><g id="design"><path d="M21.42 29.89v-5.84h11.93c1.8 0 3.38-.37 4.71-1.1 1.34-.73 2.37-1.78 3.11-3.15.73-1.37 1.1-3 1.1-4.88s-.37-3.47-1.12-4.84c-.75-1.37-1.79-2.41-3.13-3.13-1.34-.72-2.9-1.08-4.67-1.08H21.42V.04h12.01c2.26 0 4.33.36 6.24 1.08 1.9.72 3.57 1.75 4.99 3.09 1.42 1.34 2.53 2.91 3.32 4.72.79 1.8 1.18 3.82 1.18 6.05s-.4 4.17-1.18 5.98c-.79 1.82-1.89 3.4-3.3 4.74-1.41 1.34-3.07 2.38-4.97 3.11s-3.97 1.1-6.2 1.1H21.42zm40.47.47c-1.86 0-3.53-.4-5.01-1.18-1.48-.79-2.63-1.87-3.45-3.24-.82-1.37-1.23-2.94-1.23-4.71V9.35h6.51v11.8c0 .7.13 1.32.38 1.84s.62.92 1.1 1.21c.48.28 1.04.42 1.69.42.96 0 1.71-.31 2.26-.93.55-.62.82-1.47.82-2.54V9.35h6.51v11.88c0 1.8-.4 3.39-1.21 4.76-.8 1.37-1.92 2.44-3.36 3.21s-3.12 1.16-5.03 1.16zM84.83 9.11c1.86 0 3.53.4 5.01 1.18 1.48.79 2.63 1.87 3.45 3.24.82 1.37 1.23 2.94 1.23 4.71v11.88h-6.51v-11.8c0-.7-.13-1.32-.38-1.84s-.62-.92-1.1-1.21c-.48-.28-1.04-.42-1.69-.42-.96 0-1.71.31-2.26.93-.55.62-.82 1.47-.82 2.54v11.8h-6.51V18.24c0-1.8.4-3.39 1.21-4.76.8-1.37 1.92-2.44 3.36-3.21s3.12-1.16 5.03-1.16z"/><path class="cls-1" d="M21.42.04h6.68v29.85h-6.68z"/><path d="M104.57 30.13h-7.53l14.34-20.55h7.57l-14.38 20.55z"/><path class="cls-1" d="M97.04 9.34h7.57l14.34 20.55h-7.53L97.04 9.34z"/><path class="cls-2" d="M1.27 5.76c5.14 0 9.3 4.2 9.3 9.39s-4.16 9.39-9.3 9.39"/><path class="cls-2" d="M1.27 1.27c7.69 0 13.92 6.21 13.92 13.88S8.96 29.03 1.27 29.03"/><path class="cls-2" d="M1.27 10.59c2.69 0 4.87 2.04 4.87 4.55s-2.18 4.55-4.87 4.55"/></g></svg>